HIERARCHY
ROOT Hips
{
  OFFSET -391.381 77.3041 1484.37
  CHANNELS 6 Xposition Yposition Zposition Zrotation Xrotation Yrotation
  JOINT Spine
  {
    OFFSET -1.55474e-05 8 0.000140553
    CHANNELS 6 Xposition Yposition Zposition Zrotation Xrotation Yrotation
    JOINT Spine1
    {
      OFFSET 0.000476206 8 -0.000544462
      CHANNELS 6 Xposition Yposition Zposition Zrotation Xrotation Yrotation
      JOINT Spine2
      {
        OFFSET -0.0013121 8 0.00119398
        CHANNELS 6 Xposition Yposition Zposition Zrotation Xrotation Yrotation
        JOINT Spine3
        {
          OFFSET 0 8 0
          CHANNELS 6 Xposition Yposition Zposition Zrotation Xrotation Yrotation
          JOINT Neck
          {
            OFFSET 0 17 -7.93087e-05
            CHANNELS 6 Xposition Yposition Zposition Zrotation Xrotation Yrotation
            JOINT Head
            {
              OFFSET 0.000728984 10.7999 -0.000273927
              CHANNELS 6 Xposition Yposition Zposition Zrotation Xrotation Yrotation
              End Site
              {
                OFFSET 0 20.25 0
              }
            }
          }
          JOINT LeftShoulder
          {
            OFFSET 5.00002 17 0.000146009
            CHANNELS 6 Xposition Yposition Zposition Zrotation Xrotation Yrotation
            JOINT LeftShoulder2
            {
              OFFSET 6.45 0 0
              CHANNELS 6 Xposition Yposition Zposition Zrotation Xrotation Yrotation
              JOINT LeftArm
              {
                OFFSET 6.44999 2.1988e-05 -0.000110329
                CHANNELS 6 Xposition Yposition Zposition Zrotation Xrotation Yrotation
                JOINT LeftForeArm
                {
                  OFFSET -0.00295326 -32.4001 -2.00184
                  CHANNELS 6 Xposition Yposition Zposition Zrotation Xrotation Yrotation
                  JOINT LeftHand
                  {
                    OFFSET 0.00692828 -25.6461 1.99979
                    CHANNELS 6 Xposition Yposition Zposition Zrotation Xrotation Yrotation
                    JOINT LeftHandThumb1
                    {
                      OFFSET -0.49383 -1.49102 2.63525
                      CHANNELS 6 Xposition Yposition Zposition Zrotation Xrotation Yrotation
                      JOINT LeftHandThumb2
                      {
                        OFFSET -0.00119065 -3.79991 3.69658
                        CHANNELS 6 Xposition Yposition Zposition Zrotation Xrotation Yrotation
                        JOINT LeftHandThumb3
                        {
                          OFFSET 0.00195128 -2.99313 2.70237
                          CHANNELS 6 Xposition Yposition Zposition Zrotation Xrotation Yrotation
                          End Site
                          {
                            OFFSET -0.00816832 -2.30316 1.80642
                          }
                        }
                      }
                    }
                    JOINT LeftHandIndex
                    {
                      OFFSET 0.000575735 -1.90003 1.59988
                      CHANNELS 6 Xposition Yposition Zposition Zrotation Xrotation Yrotation
                      JOINT LeftHandIndex1
                      {
                        OFFSET -0.00107182 -8.3007 1.90145
                        CHANNELS 6 Xposition Yposition Zposition Zrotation Xrotation Yrotation
                        JOINT LeftHandIndex2
                        {
                          OFFSET 0.00148387 -4.49951 0.000239683
                          CHANNELS 6 Xposition Yposition Zposition Zrotation Xrotation Yrotation
                          JOINT LeftHandIndex3
                          {
                            OFFSET -0.000776038 -3.39932 -0.00198486
                            CHANNELS 6 Xposition Yposition Zposition Zrotation Xrotation Yrotation
                            End Site
                            {
                              OFFSET -0.00203507 -2.59944 0.00131152
                            }
                          }
                        }
                      }
                    }
                    JOINT LeftHandMiddle
                    {
                      OFFSET -0.246996 -2.1985 0.398106
                      CHANNELS 6 Xposition Yposition Zposition Zrotation Xrotation Yrotation
                      JOINT LeftHandMiddle1
                      {
                        OFFSET -6.75867e-05 -8.3001 0.999804
                        CHANNELS 6 Xposition Yposition Zposition Zrotation Xrotation Yrotation
                        JOINT LeftHandMiddle2
                        {
                          OFFSET 0.000468468 -4.64966 -0.00251611
                          CHANNELS 6 Xposition Yposition Zposition Zrotation Xrotation Yrotation
                          JOINT LeftHandMiddle3
                          {
                            OFFSET -8.65271e-05 -3.30021 0.000644596
                            CHANNELS 6 Xposition Yposition Zposition Zrotation Xrotation Yrotation
                            End Site
                            {
                              OFFSET 4.0791e-05 -2.70004 -0.00017857
                            }
                          }
                        }
                      }
                    }
                    JOINT LeftHandRing
                    {
                      OFFSET -0.506428 -2.15058 -0.802026
                      CHANNELS 6 Xposition Yposition Zposition Zrotation Xrotation Yrotation
                      JOINT LeftHandRing1
                      {
                        OFFSET -0.00407905 -7.74942 -0.203202
                        CHANNELS 6 Xposition Yposition Zposition Zrotation Xrotation Yrotation
                        JOINT LeftHandRing2
                        {
                          OFFSET -0.00625118 -3.80532 0.0133511
                          CHANNELS 6 Xposition Yposition Zposition Zrotation Xrotation Yrotation
                          JOINT LeftHandRing3
                          {
                            OFFSET 0.00436156 -3.39969 -0.000341857
                            CHANNELS 6 Xposition Yposition Zposition Zrotation Xrotation Yrotation
                            End Site
                            {
                              OFFSET 0.00195356 -2.59913 0.00171821
                            }
                          }
                        }
                      }
                    }
                    JOINT LeftHandPinky
                    {
                      OFFSET -0.750491 -1.74986 -1.85058
                      CHANNELS 6 Xposition Yposition Zposition Zrotation Xrotation Yrotation
                      JOINT LeftHandPinky1
                      {
                        OFFSET -0.00116534 -7.15011 -1.00067
                        CHANNELS 6 Xposition Yposition Zposition Zrotation Xrotation Yrotation
                        JOINT LeftHandPinky2
                        {
                          OFFSET -0.00100754 -3.0002 -0.000376773
                          CHANNELS 6 Xposition Yposition Zposition Zrotation Xrotation Yrotation
                          JOINT LeftHandPinky3
                          {
                            OFFSET -0.00110208 -2.35136 0.00233598
                            CHANNELS 6 Xposition Yposition Zposition Zrotation Xrotation Yrotation
                            End Site
                            {
                              OFFSET -0.00042697 -2.10046 9.43008e-05
                            }
                          }
                        }
                      }
                    }
                  }
                }
              }
            }
          }
          JOINT RightShoulder
          {
            OFFSET -5.00002 17 -2.13049e-05
            CHANNELS 6 Xposition Yposition Zposition Zrotation Xrotation Yrotation
            JOINT RightShoulder2
            {
              OFFSET -6.45 0 0
              CHANNELS 6 Xposition Yposition Zposition Zrotation Xrotation Yrotation
              JOINT RightArm
              {
                OFFSET -6.44997 -4.33548e-05 1.85423e-05
                CHANNELS 6 Xposition Yposition Zposition Zrotation Xrotation Yrotation
                JOINT RightForeArm
                {
                  OFFSET 0.00352619 -32.3986 -1.99729
                  CHANNELS 6 Xposition Yposition Zposition Zrotation Xrotation Yrotation
                  JOINT RightHand
                  {
                    OFFSET -0.00319018 -25.6496 1.99743
                    CHANNELS 6 Xposition Yposition Zposition Zrotation Xrotation Yrotation
                    JOINT RightHandThumb1
                    {
                      OFFSET 0.497072 -1.49922 2.64929
                      CHANNELS 6 Xposition Yposition Zposition Zrotation Xrotation Yrotation
                      JOINT RightHandThumb2
                      {
                        OFFSET 0.00116778 -3.79864 3.70331
                        CHANNELS 6 Xposition Yposition Zposition Zrotation Xrotation Yrotation
                        JOINT RightHandThumb3
                        {
                          OFFSET 0.00237151 -3.0018 2.69409
                          CHANNELS 6 Xposition Yposition Zposition Zrotation Xrotation Yrotation
                          End Site
                          {
                            OFFSET -0.011054 -2.28924 1.80994
                          }
                        }
                      }
                    }
                    JOINT RightHandIndex
                    {
                      OFFSET -3.69894e-05 -1.90003 1.59827
                      CHANNELS 6 Xposition Yposition Zposition Zrotation Xrotation Yrotation
                      JOINT RightHandIndex1
                      {
                        OFFSET -0.00198177 -8.29953 1.8984
                        CHANNELS 6 Xposition Yposition Zposition Zrotation Xrotation Yrotation
                        JOINT RightHandIndex2
                        {
                          OFFSET -8.81612e-05 -4.50134 -0.00176687
                          CHANNELS 6 Xposition Yposition Zposition Zrotation Xrotation Yrotation
                          JOINT RightHandIndex3
                          {
                            OFFSET 0.00021391 -3.4008 0.00103787
                            CHANNELS 6 Xposition Yposition Zposition Zrotation Xrotation Yrotation
                            End Site
                            {
                              OFFSET -0.000295406 -2.59604 0.00238547
                            }
                          }
                        }
                      }
                    }
                    JOINT RightHandMiddle
                    {
                      OFFSET 0.246894 -2.19952 0.396827
                      CHANNELS 6 Xposition Yposition Zposition Zrotation Xrotation Yrotation
                      JOINT RightHandMiddle1
                      {
                        OFFSET 0.00126319 -8.30046 1.00068
                        CHANNELS 6 Xposition Yposition Zposition Zrotation Xrotation Yrotation
                        JOINT RightHandMiddle2
                        {
                          OFFSET 0.00121017 -4.65133 0.00119921
                          CHANNELS 6 Xposition Yposition Zposition Zrotation Xrotation Yrotation
                          JOINT RightHandMiddle3
                          {
                            OFFSET 0.00180069 -3.30509 0.000453271
                            CHANNELS 6 Xposition Yposition Zposition Zrotation Xrotation Yrotation
                            End Site
                            {
                              OFFSET -0.00171169 -2.70336 0.000227547
                            }
                          }
                        }
                      }
                    }
                    JOINT RightHandRing
                    {
                      OFFSET 0.499836 -2.15003 -0.800066
                      CHANNELS 6 Xposition Yposition Zposition Zrotation Xrotation Yrotation
                      JOINT RightHandRing1
                      {
                        OFFSET -0.00158042 -7.74947 -0.200274
                        CHANNELS 6 Xposition Yposition Zposition Zrotation Xrotation Yrotation
                        JOINT RightHandRing2
                        {
                          OFFSET -5.66018e-05 -3.80269 0.00228718
                          CHANNELS 6 Xposition Yposition Zposition Zrotation Xrotation Yrotation
                          JOINT RightHandRing3
                          {
                            OFFSET 0.0025058 -3.39902 1.74009e-05
                            CHANNELS 6 Xposition Yposition Zposition Zrotation Xrotation Yrotation
                            End Site
                            {
                              OFFSET -0.000567663 -2.59816 -0.00144324
                            }
                          }
                        }
                      }
                    }
                    JOINT RightHandPinky
                    {
                      OFFSET 0.74719 -1.74865 -1.84857
                      CHANNELS 6 Xposition Yposition Zposition Zrotation Xrotation Yrotation
                      JOINT RightHandPinky1
                      {
                        OFFSET 0.000341627 -7.15007 -0.999509
                        CHANNELS 6 Xposition Yposition Zposition Zrotation Xrotation Yrotation
                        JOINT RightHandPinky2
                        {
                          OFFSET 0.000137193 -3.00031 -0.000371201
                          CHANNELS 6 Xposition Yposition Zposition Zrotation Xrotation Yrotation
                          JOINT RightHandPinky3
                          {
                            OFFSET -0.00101162 -2.35014 0.000845591
                            CHANNELS 6 Xposition Yposition Zposition Zrotation Xrotation Yrotation
                            End Site
                            {
                              OFFSET -0.000819132 -2.09949 -0.000590823
                            }
                          }
                        }
                      }
                    }
                  }
                }
              }
            }
          }
        }
      }
    }
  }
  JOINT LeftUpLeg
  {
    OFFSET 8 0 4.14213e-05
    CHANNELS 6 Xposition Yposition Zposition Zrotation Xrotation Yrotation
    JOINT LeftLeg
    {
      OFFSET 0.000346438 -45.0001 -0.999882
      CHANNELS 6 Xposition Yposition Zposition Zrotation Xrotation Yrotation
      JOINT LeftFoot
      {
        OFFSET 5.72781e-05 -41 -1.99966
        CHANNELS 6 Xposition Yposition Zposition Zrotation Xrotation Yrotation
        JOINT LeftToeBase
        {
          OFFSET -0.0021877 -7.49994 12.5021
          CHANNELS 6 Xposition Yposition Zposition Zrotation Xrotation Yrotation
          JOINT LeftFootToe
          {
            OFFSET 0 0 4
            CHANNELS 6 Xposition Yposition Zposition Zrotation Xrotation Yrotation
            End Site
            {
              OFFSET 0 0 0
            }
          }
        }
      }
    }
  }
  JOINT RightUpLeg
  {
    OFFSET -8 0 -4.14213e-05
    CHANNELS 6 Xposition Yposition Zposition Zrotation Xrotation Yrotation
    JOINT RightLeg
    {
      OFFSET -0.0036558 -45.0015 -0.995061
      CHANNELS 6 Xposition Yposition Zposition Zrotation Xrotation Yrotation
      JOINT RightFoot
      {
        OFFSET 0.000980397 -41.0027 -1.99942
        CHANNELS 6 Xposition Yposition Zposition Zrotation Xrotation Yrotation
        JOINT RightToeBase
        {
          OFFSET 0.00019078 -7.50004 12.5002
          CHANNELS 6 Xposition Yposition Zposition Zrotation Xrotation Yrotation
          JOINT RightFootToe
          {
            OFFSET 0 0 4
            CHANNELS 6 Xposition Yposition Zposition Zrotation Xrotation Yrotation
            End Site
            {
              OFFSET 0 0 0
            }
          }
        }
      }
    }
  }
}
MOTION
Frames:	3
Frame Time:	0.0111111
-390.867 77.496 1484.06 -1.29556 4.73441 156.227 0 8 0 12.8433 11.5759 -7.02821 5.68434e-14 8 0 0.840667 8.83476 5.1194 -1.13687e-13 8 2.27374e-13 0.519586 4.42202 2.57289 5.68434e-14 8 0 0.517045 4.40659 2.56285 0 17 2.27374e-13 3.55779 -0.844422 -1.90453 2.27374e-13 10.8 0 8.23912 -2.18117 -4.35984 5 17 2.27374e-13 -5.66159 0.362787 3.21371 6.45 0 0 -1.2033 0.26636 2.79335 6.45 -5.68434e-14 -2.27374e-13 44.7236 2.15175 34.0694 0 -32.4 -2 -68.9209 -63.9743 -86.5084 -1.7053e-13 -25.65 2 14.7958 -33.5993 -3.66651 -0.5 -1.5 2.65 -25.4529 -20.6615 9.93608 -1.13687e-13 -3.8 3.7 22.7547 33.9882 1.1053 1.42109e-13 -3 2.7 0.00284534 -0.0643658 0.00115457 2.27374e-13 -1.9 1.6 -2.08121e-08 4.85559e-06 -4.7167e-06 0 -8.3 1.9 -5.34444 -2.99371 -0.160551 2.27374e-13 -4.5 0 -20.4972 0.00712207 -0.0268105 1.13687e-13 -3.4 -5.68434e-14 -16.1629 -0.00635432 0.0112259 -0.25 -2.2 0.4 -2.08121e-08 4.85559e-06 -4.7167e-06 2.27374e-13 -8.3 1 -24.3873 -0.157476 0.462248 0 -4.65 1.13687e-13 -47.375 0.184482 0.0198806 0 -3.3 2.27374e-13 -90.0001 -1.30517e-05 -5.55915e-05 -0.5 -2.15 -0.8 -2.08121e-08 4.85559e-06 -4.7167e-06 -8.52651e-14 -7.75 -0.2 -37.0956 3.57261 2.75892 -1.13687e-13 -3.8 -5.68434e-14 -0.286144 0.222745 -0.0538058 0 -3.4 -1.7053e-13 -29.8512 -0.0129022 0.00221997 -0.75 -1.75 -1.85 -2.08121e-08 4.85559e-06 -4.7167e-06 -2.55795e-13 -7.15 -1 -44.3818 -2.09446 1.59859 -1.13687e-13 -3 -5.68434e-14 -0.0949539 0.107619 -0.162967 -1.13687e-13 -2.35 0 0.00028076 0.108976 -0.161007 -5 17 0 6.01222 3.25919 7.6131 -6.45 0 -2.27374e-13 -1.17215 -0.653397 -1.39113 -6.45 0 -2.27374e-13 -72.1503 -18.2044 5.12274 0 -32.4 -2 33.4946 -67.5968 18.6569 0 -25.65 2 -3.05071 -3.14369 -6.38547 0.5 -1.5 2.65 -56.0833 25.212 -49.7515 0 -3.8 3.7 -0.399756 -0.547932 -0.517384 0 -3 2.7 0.0109501 59.3107 -0.0296419 0 -1.9 1.6 4.06949e-06 1.05853e-05 -3.33865e-06 0 -8.3 1.9 27.7635 15.6573 -4.24277 0 -4.5 1.13687e-13 -0.0190455 0.0101146 -0.0228597 4.54747e-13 -3.4 -2.27374e-13 -0.000118764 -0.104782 -0.0218556 0.25 -2.2 0.4 4.06949e-06 1.05853e-05 -3.33865e-06 0 -8.3 1 26.7092 16.6881 -4.70592 0 -4.65 0 39.7558 21.5454 1.6819 0 -3.3 -1.13687e-13 33.749 0.111209 -0.0697463 0.5 -2.15 -0.8 4.06949e-06 1.05853e-05 -3.33865e-06 0 -7.75 -0.2 37.4553 7.66289 -4.0115 2.27374e-13 -3.8 0 20.5692 41.4807 19.7242 2.27374e-13 -3.4 -5.68434e-14 51.8696 -0.00233209 -0.011845 0.75 -1.75 -1.85 4.06949e-06 1.05853e-05 -3.33865e-06 0 -7.15 -1 49.4522 1.68093 -3.75441 -2.27374e-13 -3 0 13.5606 57.3439 42.6866 -2.27374e-13 -2.35 0 75.135 0.0995092 0.02236 8 0 0 42.7347 -27.4272 43.9117 1.13687e-13 -45 -1 -42.0192 31.7945 14.6869 0 -41 -2 19.1378 14.5454 -24.1551 -2.27374e-13 -7.5 12.5 -3.71137e-05 -1.13459e-05 0.00612836 0 -3.55271e-15 4 14.6806 -5.9383 89.4948 -8 0 0 -3.37891 -39.0128 -16.6139 0 -45 -1 -56.2095 20.4102 29.0769 1.13687e-13 -41 -2 55.6269 -2.35934 12.2427 0 -7.5 12.5 0.0124674 -0.00784081 0.00359646 0 5.68434e-14 4 -50.2588 5.65017 121.078 
-390.868 77.4869 1484.04 -1.32235 4.72722 156.186 -5.68434e-14 8 0 12.8319 11.5881 -7.05543 1.13687e-13 8 0 0.833375 8.83656 5.11223 0 8 0 0.518283 4.42182 2.56932 0 8 2.27374e-13 0.517269 4.40704 2.55995 0 17 0 3.51445 -0.836402 -1.87167 1.7053e-13 10.8 0 8.13915 -2.15635 -4.28503 5 17 0 -5.67977 0.388303 3.2283 6.45 -5.68434e-14 0 -1.20559 0.272666 2.80458 6.45 5.68434e-14 2.27374e-13 44.8682 2.20437 34.0342 0 -32.4 -2 -69.1466 -63.9955 -86.5122 -1.7053e-13 -25.65 2 13.9116 -33.316 -4.17999 -0.5 -1.5 2.65 -25.1976 -20.6836 10.1643 -2.27374e-13 -3.8 3.7 22.5155 33.8379 1.19825 1.13687e-13 -3 2.7 0.00286875 -0.06416 0.000666755 2.27374e-13 -1.9 1.6 -2.08121e-08 4.85559e-06 -4.7167e-06 0 -8.3 1.9 -4.78143 -3.06973 -0.150654 2.13163e-13 -4.5 1.13687e-13 -20.2235 0.00698945 -0.0267274 -1.13687e-13 -3.4 5.68434e-14 -15.9844 -0.00411876 0.0118132 -0.25 -2.2 0.4 -2.08121e-08 4.85559e-06 -4.7167e-06 1.98952e-13 -8.3 1 -23.5404 -0.342227 0.410561 5.68434e-14 -4.65 1.7053e-13 -47.4006 0.1843 0.0193708 0 -3.3 3.41061e-13 -90.0001 -1.30517e-05 -5.55915e-05 -0.5 -2.15 -0.8 -2.08121e-08 4.85559e-06 -4.7167e-06 -1.27898e-13 -7.75 -0.2 -36.4872 3.26827 2.60933 -1.13687e-13 -3.8 5.68434e-14 -0.286142 0.223609 -0.0542995 0 -3.4 -2.84217e-13 -30.0127 -0.0105828 0.000910864 -0.75 -1.75 -1.85 -2.08121e-08 4.85559e-06 -4.7167e-06 -2.27374e-13 -7.15 -1 -43.8948 -2.25968 1.49219 -1.13687e-13 -3 -5.68434e-14 -0.0949548 0.107437 -0.162749 0 -2.35 -5.68434e-14 0.000279464 0.108814 -0.160564 -5 17 -2.27374e-13 5.98632 3.29313 7.61133 -6.45 0 0 -1.17456 -0.654259 -1.39069 -6.45 0 0 -72.2075 -18.1946 5.13979 -1.13687e-13 -32.4 -2 33.2923 -67.6276 18.4246 0 -25.65 2 -2.87705 -3.1691 -6.31967 0.5 -1.5 2.65 -56.0311 25.2871 -49.7898 0 -3.8 3.7 -0.399608 -0.547473 -0.517612 0 -3 2.7 0.0114611 59.303 -0.0302827 1.13687e-13 -1.9 1.6 4.06949e-06 1.05853e-05 -3.33865e-06 0 -8.3 1.9 27.85 15.6394 -4.25219 0 -4.5 -1.13687e-13 -0.0191154 0.0102462 -0.0235434 6.82121e-13 -3.4 0 -0.000120433 -0.105808 -0.0225475 0.25 -2.2 0.4 4.06949e-06 1.05853e-05 -3.33865e-06 -1.13687e-13 -8.3 1 26.8008 16.6543 -4.71415 0 -4.65 1.13687e-13 39.7328 21.5209 1.67654 0 -3.3 0 33.7253 0.111547 -0.0699337 0.5 -2.15 -0.8 4.06949e-06 1.05853e-05 -3.33865e-06 0 -7.75 -0.2 37.5506 7.64838 -4.02014 4.54747e-13 -3.8 -1.13687e-13 20.6016 41.4417 19.6631 0 -3.4 0 51.8009 -0.00226155 -0.0116515 0.75 -1.75 -1.85 4.06949e-06 1.05853e-05 -3.33865e-06 1.13687e-13 -7.15 -1 49.4928 1.68815 -3.76237 2.27374e-13 -3 -1.13687e-13 13.567 57.3437 42.6792 0 -2.35 0 75.1315 0.100957 0.0222432 8 2.84217e-14 0 42.7577 -27.398 43.9599 0 -45 -1 -42.0885 31.8206 14.7033 0 -41 -2 19.1374 14.4844 -24.187 -2.27374e-13 -7.5 12.5 -3.71137e-05 -1.13459e-05 0.00612836 -5.68434e-14 -3.55271e-15 4 14.6597 -5.85914 89.4817 -8 -2.84217e-14 -2.27374e-13 -3.41233 -39.0204 -16.6014 1.13687e-13 -45 -1 -56.2097 20.4111 29.1099 0 -41 -2 55.6977 -2.35323 12.1398 0 -7.5 12.5 0.0120352 -0.00757259 0.00347486 5.68434e-14 5.68434e-14 4 -50.2823 5.57243 121.033 
-390.87 77.4783 1484.01 -1.34971 4.72039 156.143 5.68434e-14 8 0 12.8217 11.5991 -7.08303 -5.68434e-14 8 0 0.828272 8.83967 5.10316 5.68434e-14 8 0 0.518784 4.42166 2.56506 0 8 2.27374e-13 0.517742 4.40751 2.55519 5.68434e-14 17 -2.27374e-13 3.46877 -0.830244 -1.83514 2.84217e-13 10.8 0 8.03342 -2.13544 -4.20152 5 17 -2.27374e-13 -5.69735 0.410943 3.24645 6.45 -5.68434e-14 0 -1.20811 0.279864 2.81293 6.45 -5.68434e-14 -2.27374e-13 44.9827 2.26589 33.9945 0 -32.4 -2 -69.3252 -64.0057 -86.4389 -5.68434e-14 -25.65 2 13.0405 -33.0342 -4.66927 -0.5 -1.5 2.65 -24.9362 -20.6952 10.4006 0 -3.8 3.7 22.2835 33.6892 1.28757 5.68434e-14 -3 2.7 0.00288809 -0.0639349 0.000186832 2.27374e-13 -1.9 1.6 -2.08121e-08 4.85559e-06 -4.7167e-06 1.42109e-14 -8.3 1.9 -4.24486 -3.18634 -0.142478 2.41585e-13 -4.5 0 -19.8887 0.00690696 -0.026622 1.13687e-13 -3.4 -5.68434e-14 -15.7653 -0.00171908 0.0123833 -0.25 -2.2 0.4 -2.08121e-08 4.85559e-06 -4.7167e-06 2.27374e-13 -8.3 1 -22.651 -0.556132 0.3546 1.13687e-13 -4.65 5.68434e-14 -47.4366 0.184095 0.0188711 0 -3.3 2.27374e-13 -90.0001 -1.30517e-05 -5.55915e-05 -0.5 -2.15 -0.8 -2.08121e-08 4.85559e-06 -4.7167e-06 -1.42109e-13 -7.75 -0.2 -35.8243 2.9358 2.44883 1.13687e-13 -3.8 -5.68434e-14 -0.286139 0.224452 -0.0547924 0 -3.4 -2.27374e-13 -30.1847 -0.00821932 -0.000476796 -0.75 -1.75 -1.85 -2.08121e-08 4.85559e-06 -4.7167e-06 -1.98952e-13 -7.15 -1 -43.3439 -2.42741 1.3815 -1.13687e-13 -3 -1.7053e-13 -0.0949558 0.107252 -0.162528 1.13687e-13 -2.35 -5.68434e-14 0.00027814 0.10865 -0.160108 -5 17 -2.27374e-13 5.95856 3.32443 7.60541 -6.45 -1.13687e-13 -2.27374e-13 -1.17855 -0.655722 -1.39033 -6.45 0 0 -72.262 -18.2347 5.16238 0 -32.4 -2 33.0271 -67.6608 18.1077 0 -25.65 2 -2.68322 -3.14905 -6.24281 0.5 -1.5 2.65 -55.9969 25.3265 -49.8733 0 -3.8 3.7 -0.399466 -0.547023 -0.517837 0 -3 2.7 0.0119482 59.272 -0.0309031 0 -1.9 1.6 4.06949e-06 1.05853e-05 -3.33865e-06 0 -8.3 1.9 27.9145 15.6209 -4.25784 -2.27374e-13 -4.5 0 -0.0191825 0.0103841 -0.0242278 6.82121e-13 -3.4 0 -0.000122103 -0.106684 -0.0232592 0.25 -2.2 0.4 4.06949e-06 1.05853e-05 -3.33865e-06 0 -8.3 1 26.8699 16.6228 -4.71865 0 -4.65 0 39.7211 21.5076 1.67315 0 -3.3 1.13687e-13 33.7129 0.111864 -0.0701154 0.5 -2.15 -0.8 4.06949e-06 1.05853e-05 -3.33865e-06 0 -7.75 -0.2 37.6286 7.63344 -4.02608 4.54747e-13 -3.8 0 20.6332 41.4035 19.6034 2.27374e-13 -3.4 -5.68434e-14 51.7338 -0.00219133 -0.0114738 0.75 -1.75 -1.85 4.06949e-06 1.05853e-05 -3.33865e-06 0 -7.15 -1 49.5165 1.68335 -3.76235 0 -3 0 13.5825 57.3414 42.6612 -2.27374e-13 -2.35 -1.13687e-13 75.1224 0.102357 0.0221142 8 0 0 42.7808 -27.3641 44.0115 -2.27374e-13 -45 -1 -42.1634 31.8485 14.7221 5.68434e-14 -41 -2 19.1512 14.438 -24.2304 -2.84217e-13 -7.5 12.5 -3.71137e-05 -1.13459e-05 0.00612836 0 -3.55271e-15 4 14.6459 -5.79994 89.4749 -8 0 -2.27374e-13 -3.44576 -39.024 -16.581 0 -45 -1 -56.2098 20.412 29.1421 0 -41 -2 55.7683 -2.34179 12.0269 0 -7.5 12.5 0.0116029 -0.00730438 0.00335108 0 0 4 -50.2943 5.49263 120.988 
